# xmcd
#
# Track frame offsets: 
#        150
#        16460
#        44812
#        68370
#
# Disc length: 1126 seconds
#
# Revision: 0
# Processed by: cddbd v1.5.2PL0 Copyright (c) Steve Scherf et al.
# Submitted via: ExactAudioCopy v0.99pb5
#
DISCID=2e046404
DTITLE=Lavinia Jones - Sing It To You - Part II
DYEAR=1998
DGENRE=House
TTITLE0=Sing It To You (Sash! Radio Edit)
TTITLE1=Sing It To You (Sash! Extended Mix)
TTITLE2=Sing It To You (A Night At The Club Mix)
TTITLE3=Sing It To You (Original Radio Edit)
EXTD=
EXTT0=
EXTT1=
EXTT2=
EXTT3=
PLAYORDER=
